<svg width="14" height="12" viewBox="0 0 14 12" fill="none" xmlns="http://www.w3.org/2000/svg">
<path d="M5.97906 0.699441C6.28258 -0.17373 7.51745 -0.173731 7.82096 0.69944L8.66397 3.12466C8.79786 3.50985 9.15733 3.77102 9.56505 3.77933L12.1321 3.83165C13.0563 3.85048 13.4379 5.02491 12.7013 5.58339L10.6552 7.13457C10.3303 7.38094 10.193 7.80353 10.3111 8.19386L11.0546 10.6514C11.3222 11.5362 10.3232 12.2621 9.56443 11.734L7.45691 10.2675C7.12218 10.0346 6.67785 10.0346 6.34311 10.2675L4.2356 11.734C3.47682 12.2621 2.47778 11.5362 2.74547 10.6514L3.48897 8.19386C3.60706 7.80353 3.46976 7.38094 3.14479 7.13457L1.09878 5.5834C0.362132 5.02491 0.743726 3.85048 1.66795 3.83165L4.23497 3.77933C4.64269 3.77102 5.00217 3.50985 5.13606 3.12466L5.97906 0.699441Z" fill="#111111"/>
</svg>
