<svg width="14" height="13" viewBox="0 0 14 13" fill="none" xmlns="http://www.w3.org/2000/svg">
<path d="M6.98321 12.5745L7.04997 12.6343L7.11672 12.5745L8.08339 11.7078L8.08357 11.7076C9.20656 10.6958 10.1357 9.82235 10.8707 9.08737C11.606 8.35201 12.1929 7.6928 12.63 7.11L12.6305 7.10926C13.0673 6.51564 13.3732 5.96792 13.5443 5.46653C13.7258 4.96719 13.8166 4.45596 13.8166 3.93333C13.8166 2.86399 13.4572 1.96582 12.7373 1.24595C12.0175 0.526081 11.1193 0.166663 10.05 0.166663C9.45757 0.166663 8.8931 0.292091 8.35757 0.54276C7.85692 0.777111 7.42087 1.10128 7.04997 1.51465C6.67907 1.10128 6.24302 0.777111 5.74236 0.54276C5.20684 0.292091 4.64237 0.166663 4.04997 0.166663C2.98062 0.166663 2.08246 0.526081 1.36259 1.24595C0.64272 1.96582 0.283301 2.86399 0.283301 3.93333C0.283301 4.45554 0.368479 4.96643 0.53865 5.4656L0.53863 5.4656L0.539321 5.4675C0.72138 5.96816 1.03254 6.51554 1.46942 7.10926L1.46942 7.10927L1.46997 7.11C1.90707 7.6928 2.49389 8.35201 3.22926 9.08737C3.96423 9.82235 4.89338 10.6958 6.01637 11.7076L6.01655 11.7078L6.98321 12.5745ZM8.65447 2.13384L8.65448 2.13385L8.65592 2.13288C9.08431 1.84372 9.54825 1.7 10.05 1.7C10.6919 1.7 11.2215 1.91291 11.6459 2.33737C12.0704 2.76184 12.2833 3.2914 12.2833 3.93333C12.2833 4.30846 12.2084 4.6905 12.0569 5.07999C11.9063 5.45644 11.6349 5.8977 11.2383 6.40456C10.8415 6.90047 10.3 7.49182 9.61287 8.179C8.93993 8.84108 8.08572 9.63659 7.04997 10.5657C6.01421 9.63659 5.16001 8.84108 4.48706 8.179C3.79991 7.49184 3.25847 6.9005 2.86172 6.4046C2.46506 5.89772 2.19366 5.45644 2.043 5.07998C1.89158 4.69049 1.81663 4.30846 1.81663 3.93333C1.81663 3.2914 2.02955 2.76184 2.45401 2.33737C2.87848 1.91291 3.40804 1.7 4.04997 1.7C4.55169 1.7 5.01563 1.84372 5.44402 2.13288L5.44401 2.13289L5.44547 2.13384C5.87355 2.41209 6.16419 2.7677 6.32272 3.20102L6.34674 3.26666H6.41664H7.6833H7.7532L7.77721 3.20102C7.93575 2.7677 8.22639 2.41209 8.65447 2.13384Z" fill="#D1BE92" stroke="#D1BE92" stroke-width="0.2"/>
</svg>
