<svg width="20" height="20" viewBox="0 0 20 20" fill="none" xmlns="http://www.w3.org/2000/svg">
<path d="M10.0001 16.5517C9.19705 16.5517 8.39643 16.4156 7.6206 16.1471C6.87208 15.8882 6.14059 15.5039 5.44645 15.0053C4.77317 14.5216 4.12981 13.9265 3.53429 13.2365C2.94925 12.5587 2.40626 11.7847 1.92027 10.9359C1.75438 10.6461 1.66669 10.3026 1.66669 9.94256C1.66669 9.58252 1.75438 9.23904 1.92027 8.94927C2.40626 8.10043 2.94925 7.32642 3.53429 6.64861C4.12992 5.9586 4.77328 5.36348 5.44645 4.87979C6.14059 4.38108 6.87208 3.99696 7.6206 3.73802C8.39643 3.46938 9.19705 3.33331 10.0001 3.33331C10.8031 3.33331 11.6035 3.46938 12.3794 3.73791C13.1279 3.99685 13.8593 4.38108 14.5535 4.87968C15.2267 5.36337 15.87 5.95849 16.4656 6.6485C17.0507 7.32631 17.5937 8.10032 18.0797 8.94916C18.2455 9.23893 18.3332 9.58241 18.3332 9.94245C18.3332 10.3025 18.2455 10.646 18.0797 10.9357C17.5937 11.7846 17.0507 12.5586 16.4656 13.2364C15.87 13.9264 15.2267 14.5215 14.5535 15.0052C13.8593 15.5039 13.1279 15.8881 12.3794 16.147C11.6036 16.4154 10.803 16.5516 10.0001 16.5516V16.5517ZM10.0001 4.56856C7.36527 4.56856 4.81216 6.38847 2.99545 9.56183C2.87521 9.77175 2.87521 10.1134 2.99545 10.3233C4.81216 13.4965 7.36527 15.3166 10.0001 15.3166C12.6349 15.3166 15.1876 13.4967 17.0043 10.3233C17.1245 10.1134 17.1245 9.77175 17.0043 9.56183C15.1876 6.38858 12.6347 4.56856 10.0001 4.56856Z" fill="#8743D5"/>
<path d="M10.0257 12.9488C10.4243 12.9455 10.8097 12.866 11.1736 12.7125L10.0257 12.9488ZM10.0257 12.9488H9.9996C9.59158 12.9488 9.19738 12.8692 8.82555 12.7123L8.82553 12.7123C8.4664 12.5608 8.14437 12.3443 7.86719 12.0679C7.59002 11.7914 7.37316 11.4703 7.22142 11.1124L7.22141 11.1123C7.06428 10.7418 6.98456 10.3489 6.98456 9.94255C6.98456 9.53617 7.06428 9.1433 7.22141 8.77275L7.22142 8.77273C7.37316 8.4148 7.59002 8.09371 7.86719 7.81723C8.14437 7.54075 8.4664 7.3243 8.82553 7.1728L8.82555 7.17279C9.19738 7.01591 9.59168 6.93628 9.9996 6.93628C10.4075 6.93628 10.8018 7.01591 11.1736 7.17279L11.1737 7.1728C11.5328 7.3243 11.8548 7.54075 12.132 7.81723C12.4092 8.09371 12.626 8.4148 12.7778 8.77273L12.7778 8.77275C12.9349 9.1433 13.0146 9.53617 13.0146 9.94255C13.0146 10.3489 12.9349 10.7418 12.7778 11.1123L12.7778 11.1124C12.626 11.4703 12.4092 11.7914 12.132 12.0679C11.8548 12.3443 11.5328 12.5608 11.1736 12.7124L10.0257 12.9488ZM9.9996 7.17142C8.46928 7.17142 7.22278 8.41287 7.22278 9.94255C7.22278 11.4722 8.46915 12.7137 9.9996 12.7137C11.53 12.7137 12.7764 11.4722 12.7764 9.94255C12.7764 8.41288 11.53 7.17142 9.9996 7.17142Z" fill="#8743D5" stroke="#8743D5"/>
</svg>
