<svg width="13" height="13" viewBox="0 0 13 13" fill="none" xmlns="http://www.w3.org/2000/svg">
<path d="M1.99995 11.05H2.9262L9.27995 4.69627L8.3537 3.77002L1.99995 10.1238V11.05ZM0.699951 12.35V9.58753L9.27995 1.02377C9.40995 0.904608 9.55349 0.812524 9.71058 0.747524C9.86766 0.682524 10.0329 0.650024 10.2062 0.650024C10.3795 0.650024 10.5475 0.682524 10.71 0.747524C10.8725 0.812524 11.0133 0.910024 11.1325 1.04002L12.0262 1.95002C12.1562 2.06919 12.251 2.21002 12.3106 2.37252C12.3702 2.53502 12.4 2.69752 12.4 2.86002C12.4 3.03336 12.3702 3.19857 12.3106 3.35565C12.251 3.51273 12.1562 3.65628 12.0262 3.78628L3.46245 12.35H0.699951ZM8.8087 4.24128L8.3537 3.77002L9.27995 4.69627L8.8087 4.24128Z" fill="#1D1B20"/>
</svg>
