<svg width="60" height="60" fill="none" xmlns="http://www.w3.org/2000/svg"><g><rect x="5" y="4" width="45" height="45" rx="22.5" fill="#78B2B4"/><rect x="5" y="4" width="45" height="45" rx="22.5" stroke="#3C7D7F"/><path fill-rule="evenodd" clip-rule="evenodd" d="M33.195 21.662c.334.271.404.787.157 1.153l-5.355 7.907c-.579.854-1.68 1.033-2.46.398l-3.734-3.038c-.333-.272-.403-.788-.155-1.153.249-.365.72-.441 1.054-.17l3.733 3.038c.112.091.269.066.352-.056l5.355-7.907c.247-.366.719-.443 1.053-.172Z" fill="#FBFBFB"/></g><defs><filter id="a" x=".5" y=".5" width="58" height="58" filterUnits="userSpaceOnUse" color-interpolation-filters="sRGB"><feFlood flood-opacity="0" result="BackgroundImageFix"/><feColorMatrix in="SourceAlpha" values="0 0 0 0 0 0 0 0 0 0 0 0 0 0 0 0 0 0 127 0" result="hardAlpha"/><feOffset dx="2" dy="3"/><feGaussianBlur stdDeviation="3"/><feComposite in2="hardAlpha" operator="out"/><feColorMatrix values="0 0 0 0 0 0 0 0 0 0 0 0 0 0 0 0 0 0 0.15 0"/><feBlend in2="BackgroundImageFix" result="effect1_dropShadow_958_2086"/><feBlend in="SourceGraphic" in2="effect1_dropShadow_958_2086" result="shape"/></filter></defs></svg>