<svg width="13" height="12" viewBox="0 0 13 12" fill="none" xmlns="http://www.w3.org/2000/svg">
<path d="M5.62903 0.699441C5.93254 -0.17373 7.16741 -0.173731 7.47093 0.69944L8.31393 3.12466C8.44782 3.50985 8.8073 3.77102 9.21501 3.77933L11.782 3.83165C12.7063 3.85048 13.0879 5.02491 12.3512 5.58339L10.3052 7.13457C9.98023 7.38094 9.84293 7.80353 9.96101 8.19386L10.7045 10.6514C10.9722 11.5362 9.97317 12.2621 9.21439 11.734L7.10688 10.2675C6.77214 10.0346 6.32781 10.0346 5.99308 10.2675L3.88556 11.734C3.12678 12.2621 2.12775 11.5362 2.39544 10.6514L3.13894 8.19386C3.25703 7.80353 3.11972 7.38094 2.79475 7.13457L0.748739 5.5834C0.0120953 5.02491 0.39369 3.85048 1.31792 3.83165L3.88494 3.77933C4.29265 3.77102 4.65213 3.50985 4.78602 3.12466L5.62903 0.699441Z" fill="#FFDA1B"/>
</svg>
