<svg width="15" height="15" viewBox="0 0 15 15" fill="none" xmlns="http://www.w3.org/2000/svg">
<path d="M6.98138 1.08326C7.28878 0.218832 8.51127 0.218833 8.81867 1.08326L9.26025 2.32501C9.45384 2.86938 10.0757 3.12694 10.5975 2.8789L11.7878 2.3131C12.6164 1.91922 13.4808 2.78365 13.0869 3.61226L12.5211 4.80255C12.2731 5.32436 12.5306 5.94619 13.075 6.13977L14.3168 6.58136C15.1812 6.88876 15.1812 8.11124 14.3168 8.41864L13.075 8.86023C12.5306 9.05381 12.2731 9.67564 12.5211 10.1974L13.0869 11.3877C13.4808 12.2163 12.6164 13.0808 11.7878 12.6869L10.5975 12.1211C10.0757 11.8731 9.45383 12.1306 9.26025 12.675L8.81867 13.9167C8.51126 14.7812 7.28878 14.7812 6.98138 13.9167L6.5398 12.675C6.34621 12.1306 5.72439 11.8731 5.20258 12.1211L4.01228 12.6869C3.18367 13.0808 2.31925 12.2163 2.71312 11.3877L3.27893 10.1974C3.52697 9.67563 3.2694 9.05381 2.72503 8.86022L1.48328 8.41864C0.618857 8.11124 0.618858 6.88876 1.48328 6.58136L2.72503 6.13977C3.2694 5.94619 3.52697 5.32436 3.27893 4.80255L2.71312 3.61225C2.31925 2.78365 3.18368 1.91922 4.01228 2.3131L5.20258 2.8789C5.72439 3.12694 6.34621 2.86937 6.5398 2.32501L6.98138 1.08326Z" fill="#FFDA1B"/>
</svg>
