<svg width="34" height="17" viewBox="0 0 34 17" fill="none" xmlns="http://www.w3.org/2000/svg">
<path d="M15.2739 1.99993C15.7742 1.13326 17.0252 1.13326 17.5255 1.99993L20.0587 6.38743L22.5918 10.7749C23.0922 11.6416 22.4667 12.7249 21.466 12.7249H16.3997H11.3335C10.3327 12.7249 9.70726 11.6416 10.2076 10.7749L12.7408 6.38743L15.2739 1.99993Z" fill="#111111"/>
<path d="M23.8879 1.01545C24.0672 -0.0732627 25.6326 -0.0732622 25.8119 1.01545L25.9313 1.73992C25.9992 2.15233 26.3224 2.47557 26.7348 2.5435L27.4593 2.66283C28.548 2.84216 28.548 4.40757 27.4593 4.5869L26.7348 4.70623C26.3224 4.77416 25.9992 5.0974 25.9313 5.50981L25.8119 6.23428C25.6326 7.32299 24.0672 7.32299 23.8879 6.23428L23.7685 5.50981C23.7006 5.0974 23.3774 4.77416 22.965 4.70623L22.2405 4.5869C21.1518 4.40757 21.1518 2.84216 22.2405 2.66283L22.965 2.5435C23.3774 2.47557 23.7006 2.15233 23.7685 1.73992L23.8879 1.01545Z" fill="#111111"/>
</svg>
